<?xml version="1.0" standalone="no"?><!DOCTYPE svg PUBLIC "-//W3C//DTD SVG 1.1//EN" "http://www.w3.org/Graphics/SVG/1.1/DTD/svg11.dtd"><svg t="1740458550429" class="icon" viewBox="0 0 1024 1024" version="1.1" xmlns="http://www.w3.org/2000/svg" p-id="6033" xmlns:xlink="http://www.w3.org/1999/xlink" width="24" height="24"><path d="M512.9216 373.1456c-32.4608 0-58.7776 11.264-78.9504 33.8944-20.1728 22.6304-30.208 56.5248-30.208 101.888 0 46.08 10.0352 80.5888 30.208 103.424 20.1728 22.8352 45.6704 34.304 76.4928 34.304 11.4688 0 22.3232-1.8432 32.5632-5.632a233.14432 233.14432 0 0 0-49.152-24.7808l22.3232-45.4656c26.2144 9.0112 51.2 22.4256 75.0592 40.3456 10.24-11.9808 17.92-26.5216 23.04-43.52 5.12-16.9984 7.68-36.5568 7.68-58.5728 0-45.568-10.0352-79.5648-30.1056-102.0928-20.1728-22.6304-46.4896-33.792-78.9504-33.792z" p-id="6034" fill="#5f6368"></path><path d="M768 102.4H256c-84.7872 0-153.6 68.8128-153.6 153.6v512c0 84.7872 68.8128 153.6 153.6 153.6h512c84.7872 0 153.6-68.8128 153.6-153.6V256c0-84.7872-68.8128-153.6-153.6-153.6z m-78.4384 643.1744c-11.9808-3.584-23.7568-8.4992-35.2256-14.7456-2.56-1.2288-20.1728-12.9024-52.9408-34.9184-25.8048 11.264-54.3744 16.896-85.8112 16.896-60.6208 0-108.032-17.8176-142.336-53.5552-34.304-35.7376-51.5072-85.8112-51.5072-150.3232 0-64.3072 17.2032-114.3808 51.6096-150.2208 34.4064-35.7376 81.1008-53.6576 140.0832-53.6576 58.4704 0 104.7552 17.92 139.0592 53.6576 34.2016 35.7376 51.4048 85.8112 51.4048 150.2208 0 34.0992-4.7104 64-14.2336 89.8048-7.168 19.7632-18.6368 38.8096-34.4064 57.2416 19.5584 14.0288 40.7552 25.088 63.6928 33.3824l-29.3888 56.2176z" p-id="6035" fill="#5f6368"></path></svg>